<svg width="89" height="89" viewBox="0 0 89 89" fill="none" xmlns="http://www.w3.org/2000/svg">
<circle cx="44.5" cy="44.5" r="44.5" fill="#22D234"/>
<path d="M13.6562 51.5469H24.4375V54H10.6406V31.25H13.6562V51.5469ZM26.6406 45.3906C26.6406 43.7344 26.9635 42.2448 27.6094 40.9219C28.2656 39.599 29.1719 38.5781 30.3281 37.8594C31.4948 37.1406 32.8229 36.7812 34.3125 36.7812C36.6146 36.7812 38.474 37.5781 39.8906 39.1719C41.3177 40.7656 42.0312 42.8854 42.0312 45.5312V45.7344C42.0312 47.3802 41.7135 48.8594 41.0781 50.1719C40.4531 51.474 39.5521 52.4896 38.375 53.2188C37.2083 53.9479 35.8646 54.3125 34.3438 54.3125C32.0521 54.3125 30.1927 53.5156 28.7656 51.9219C27.349 50.3281 26.6406 48.2188 26.6406 45.5938V45.3906ZM29.5469 45.7344C29.5469 47.6094 29.9792 49.1146 30.8438 50.25C31.7188 51.3854 32.8854 51.9531 34.3438 51.9531C35.8125 51.9531 36.9792 51.3802 37.8438 50.2344C38.7083 49.0781 39.1406 47.4635 39.1406 45.3906C39.1406 43.5365 38.6979 42.0365 37.8125 40.8906C36.9375 39.7344 35.7708 39.1562 34.3125 39.1562C32.8854 39.1562 31.7344 39.724 30.8594 40.8594C29.9844 41.9948 29.5469 43.6198 29.5469 45.7344ZM44.9688 45.4062C44.9688 42.7708 45.5781 40.6771 46.7969 39.125C48.0156 37.5625 49.6302 36.7812 51.6406 36.7812C53.7031 36.7812 55.3125 37.5104 56.4688 38.9688L56.6094 37.0938H59.25V53.5938C59.25 55.7812 58.599 57.5052 57.2969 58.7656C56.0052 60.026 54.2656 60.6562 52.0781 60.6562C50.8594 60.6562 49.6667 60.3958 48.5 59.875C47.3333 59.3542 46.4427 58.6406 45.8281 57.7344L47.3281 56C48.5677 57.5312 50.0833 58.2969 51.875 58.2969C53.2812 58.2969 54.375 57.901 55.1562 57.1094C55.9479 56.3177 56.3438 55.2031 56.3438 53.7656V52.3125C55.1875 53.6458 53.6094 54.3125 51.6094 54.3125C49.6302 54.3125 48.026 53.5156 46.7969 51.9219C45.5781 50.3281 44.9688 48.1562 44.9688 45.4062ZM47.875 45.7344C47.875 47.6406 48.2656 49.1406 49.0469 50.2344C49.8281 51.3177 50.9219 51.8594 52.3281 51.8594C54.151 51.8594 55.4896 51.0312 56.3438 49.375V41.6562C55.4583 40.0417 54.1302 39.2344 52.3594 39.2344C50.9531 39.2344 49.8542 39.7812 49.0625 40.875C48.2708 41.9688 47.875 43.5885 47.875 45.7344ZM62.8594 45.3906C62.8594 43.7344 63.1823 42.2448 63.8281 40.9219C64.4844 39.599 65.3906 38.5781 66.5469 37.8594C67.7135 37.1406 69.0417 36.7812 70.5312 36.7812C72.8333 36.7812 74.6927 37.5781 76.1094 39.1719C77.5365 40.7656 78.25 42.8854 78.25 45.5312V45.7344C78.25 47.3802 77.9323 48.8594 77.2969 50.1719C76.6719 51.474 75.7708 52.4896 74.5938 53.2188C73.4271 53.9479 72.0833 54.3125 70.5625 54.3125C68.2708 54.3125 66.4115 53.5156 64.9844 51.9219C63.5677 50.3281 62.8594 48.2188 62.8594 45.5938V45.3906ZM65.7656 45.7344C65.7656 47.6094 66.1979 49.1146 67.0625 50.25C67.9375 51.3854 69.1042 51.9531 70.5625 51.9531C72.0312 51.9531 73.1979 51.3802 74.0625 50.2344C74.9271 49.0781 75.3594 47.4635 75.3594 45.3906C75.3594 43.5365 74.9167 42.0365 74.0312 40.8906C73.1562 39.7344 71.9896 39.1562 70.5312 39.1562C69.1042 39.1562 67.9531 39.724 67.0781 40.8594C66.2031 41.9948 65.7656 43.6198 65.7656 45.7344Z" fill="#EBEBEB"/>
</svg>
